<?xml version="1.0" encoding="utf-8"?>
<!-- Generator: Adobe Illustrator 19.2.1, SVG Export Plug-In . SVG Version: 6.00 Build 0)  -->
<svg version="1.1" id="Layer_1" xmlns="http://www.w3.org/2000/svg" xmlns:xlink="http://www.w3.org/1999/xlink" x="0px" y="0px"
	 viewBox="0 0 1367.3 609.9" style="enable-background:new 0 0 1367.3 609.9;" xml:space="preserve">
<style type="text/css">
	.st0{fill:#BBD437;}
	.st1{fill:#044D66;}
</style>
<title>mri-logo</title>
<circle class="st0" cx="1309.5" cy="54.3" r="54.3"/>
<path class="st0" d="M1115.5,108.6c-72.8-1.8-142.1,30.7-187.3,87.8l0,0c-14.3-18.2-31.3-34-50.5-47v458.3H980V349.2
	c0-82.5,53.3-144,136.1-144c43.6-1.4,84.9,19.4,109.8,55.3V136.6C1192.2,117.8,1154.1,108.1,1115.5,108.6z"/>
<path class="st1" d="M848.9,352.3v255.4H746V349.2c0-82.5-53.3-144-136.1-144s-136.1,61.5-136.1,144v258.6H372.7V349.2
	c0-82.5-53.3-144-136.1-144c-43.8-2.1-85.5,18.4-110.5,54.4l0,0c-17.4,26.3-26.4,57.3-25.7,88.9v259.2H-1.5v-460
	c18.4,13,34.5,28.9,47.9,47l1.6,2.2c45.4-57.6,115.1-90.7,188.5-89.5c38.5-0.2,76.3,9.6,109.8,28.4l0,0
	c32.1,18.1,58.6,44.6,76.8,76.8v1v-1l0,0c38-66.4,109.6-106.4,186-103.8C750.8,108.6,848.9,214.5,848.9,352.3z"/>
<path class="st1" d="M1255.4,263.6V145.2c18.6,12.7,107.6,68,107.6,159.6v38.6v263.9c-22.5-10.4-42.1-26.1-57.2-45.9c0,0,0-0.8,0,0
	l-5.6-7.5c-9.5-13.3-17.5-27.7-24-42.7c-1.3-3.1-2.5-6.2-3.8-9.3c-1.3-3.1-2.4-6.2-3.3-9.3c-3.2-9.5-5.8-19.3-7.8-29.1
	c-3.7-17.9-5.5-36.2-5.4-54.4V263.6H1255.4z"/>
</svg>
